%
M48
M72
T01C0.01400
T02C0.02362
T03C0.04000
T04C0.07874
%
T01
X64012Y17732
X59091Y19701
X53972Y20488
X48854Y20488
X49445Y140764
X66571Y158283
X85469Y143717
X89012Y143717
X92555Y143717
X96098Y143717
X118146Y137811
X120508Y141157
X122673Y144307
X124051Y150016
T02
X43933Y36827
T03
X133894Y33677
X133894Y43677
X133894Y53677
X133894Y63677
X133894Y73677
X133697Y88795
X133697Y98795
X133697Y108795
X99012Y94386
X99012Y84386
X89012Y84386
X89012Y94386
X79012Y94386
X79012Y84386
X69012Y84386
X69012Y94386
X59012Y94386
X59012Y84386
X49012Y84386
X49012Y94386
X39012Y94386
X39012Y84386
X29012Y84386
X29012Y94386
X39012Y54031
X39012Y44031
X49012Y44031
X59012Y44031
X69012Y44031
X79012Y44031
X89012Y44031
X99012Y44031
X99012Y54031
X89012Y54031
X79012Y54031
X69012Y54031
X59012Y54031
X49012Y54031
X29012Y54031
X29012Y44031
T04
X154563Y154740
X12831Y154740
X12831Y13008
X154563Y13008
M30
