G75*
%MOIN*%
%OFA0B0*%
%FSLAX25Y25*%
%IPPOS*%
%LPD*%
%AMOC8*
5,1,8,0,0,1.08239X$1,22.5*
%
%ADD10C,0.00000*%
%ADD11C,0.00300*%
D10*
X0012831Y0001000D02*
X0154563Y0001000D01*
X0154563Y0000999D02*
X0154851Y0001005D01*
X0155139Y0001018D01*
X0155426Y0001038D01*
X0155712Y0001065D01*
X0155998Y0001098D01*
X0156283Y0001139D01*
X0156567Y0001186D01*
X0156850Y0001240D01*
X0157131Y0001301D01*
X0157411Y0001369D01*
X0157689Y0001444D01*
X0157965Y0001525D01*
X0158239Y0001613D01*
X0158511Y0001707D01*
X0158780Y0001808D01*
X0159047Y0001916D01*
X0159312Y0002030D01*
X0159573Y0002150D01*
X0159831Y0002277D01*
X0160087Y0002409D01*
X0160339Y0002548D01*
X0160588Y0002693D01*
X0160833Y0002844D01*
X0161074Y0003001D01*
X0161311Y0003164D01*
X0161545Y0003332D01*
X0161774Y0003506D01*
X0161999Y0003685D01*
X0162220Y0003870D01*
X0162436Y0004060D01*
X0162648Y0004255D01*
X0162854Y0004455D01*
X0163056Y0004660D01*
X0163253Y0004870D01*
X0163445Y0005085D01*
X0163631Y0005304D01*
X0163812Y0005528D01*
X0163988Y0005756D01*
X0164158Y0005988D01*
X0164322Y0006225D01*
X0164481Y0006465D01*
X0164634Y0006709D01*
X0164781Y0006956D01*
X0164921Y0007207D01*
X0165056Y0007461D01*
X0165185Y0007719D01*
X0165307Y0007980D01*
X0165423Y0008243D01*
X0165532Y0008509D01*
X0165636Y0008778D01*
X0165732Y0009049D01*
X0165822Y0009322D01*
X0165905Y0009598D01*
X0165982Y0009875D01*
X0166052Y0010154D01*
X0166115Y0010435D01*
X0166172Y0010717D01*
X0166221Y0011001D01*
X0166264Y0011286D01*
X0166300Y0011571D01*
X0166328Y0011858D01*
X0166350Y0012144D01*
X0166365Y0012432D01*
X0166373Y0012720D01*
X0166375Y0013007D01*
X0166374Y0013008D02*
X0166374Y0154740D01*
X0166371Y0155025D01*
X0166360Y0155311D01*
X0166343Y0155596D01*
X0166319Y0155880D01*
X0166288Y0156164D01*
X0166250Y0156447D01*
X0166205Y0156728D01*
X0166154Y0157009D01*
X0166096Y0157289D01*
X0166031Y0157567D01*
X0165959Y0157843D01*
X0165881Y0158117D01*
X0165796Y0158390D01*
X0165704Y0158660D01*
X0165606Y0158928D01*
X0165502Y0159194D01*
X0165391Y0159457D01*
X0165274Y0159717D01*
X0165151Y0159975D01*
X0165021Y0160229D01*
X0164885Y0160480D01*
X0164744Y0160728D01*
X0164596Y0160972D01*
X0164443Y0161213D01*
X0164283Y0161449D01*
X0164118Y0161682D01*
X0163948Y0161911D01*
X0163772Y0162136D01*
X0163590Y0162356D01*
X0163404Y0162572D01*
X0163212Y0162783D01*
X0163015Y0162990D01*
X0162813Y0163192D01*
X0162606Y0163389D01*
X0162395Y0163581D01*
X0162179Y0163767D01*
X0161959Y0163949D01*
X0161734Y0164125D01*
X0161505Y0164295D01*
X0161272Y0164460D01*
X0161036Y0164620D01*
X0160795Y0164773D01*
X0160551Y0164921D01*
X0160303Y0165062D01*
X0160052Y0165198D01*
X0159798Y0165328D01*
X0159540Y0165451D01*
X0159280Y0165568D01*
X0159017Y0165679D01*
X0158751Y0165783D01*
X0158483Y0165881D01*
X0158213Y0165973D01*
X0157940Y0166058D01*
X0157666Y0166136D01*
X0157390Y0166208D01*
X0157112Y0166273D01*
X0156832Y0166331D01*
X0156551Y0166382D01*
X0156270Y0166427D01*
X0155987Y0166465D01*
X0155703Y0166496D01*
X0155419Y0166520D01*
X0155134Y0166537D01*
X0154848Y0166548D01*
X0154563Y0166551D01*
X0012831Y0166551D01*
X0012546Y0166548D01*
X0012260Y0166537D01*
X0011975Y0166520D01*
X0011691Y0166496D01*
X0011407Y0166465D01*
X0011124Y0166427D01*
X0010843Y0166382D01*
X0010562Y0166331D01*
X0010282Y0166273D01*
X0010004Y0166208D01*
X0009728Y0166136D01*
X0009454Y0166058D01*
X0009181Y0165973D01*
X0008911Y0165881D01*
X0008643Y0165783D01*
X0008377Y0165679D01*
X0008114Y0165568D01*
X0007854Y0165451D01*
X0007596Y0165328D01*
X0007342Y0165198D01*
X0007091Y0165062D01*
X0006843Y0164921D01*
X0006599Y0164773D01*
X0006358Y0164620D01*
X0006122Y0164460D01*
X0005889Y0164295D01*
X0005660Y0164125D01*
X0005435Y0163949D01*
X0005215Y0163767D01*
X0004999Y0163581D01*
X0004788Y0163389D01*
X0004581Y0163192D01*
X0004379Y0162990D01*
X0004182Y0162783D01*
X0003990Y0162572D01*
X0003804Y0162356D01*
X0003622Y0162136D01*
X0003446Y0161911D01*
X0003276Y0161682D01*
X0003111Y0161449D01*
X0002951Y0161213D01*
X0002798Y0160972D01*
X0002650Y0160728D01*
X0002509Y0160480D01*
X0002373Y0160229D01*
X0002243Y0159975D01*
X0002120Y0159717D01*
X0002003Y0159457D01*
X0001892Y0159194D01*
X0001788Y0158928D01*
X0001690Y0158660D01*
X0001598Y0158390D01*
X0001513Y0158117D01*
X0001435Y0157843D01*
X0001363Y0157567D01*
X0001298Y0157289D01*
X0001240Y0157009D01*
X0001189Y0156728D01*
X0001144Y0156447D01*
X0001106Y0156164D01*
X0001075Y0155880D01*
X0001051Y0155596D01*
X0001034Y0155311D01*
X0001023Y0155025D01*
X0001020Y0154740D01*
X0001020Y0013008D01*
X0001019Y0013007D02*
X0001021Y0012720D01*
X0001029Y0012432D01*
X0001044Y0012144D01*
X0001066Y0011858D01*
X0001094Y0011571D01*
X0001130Y0011286D01*
X0001173Y0011001D01*
X0001222Y0010717D01*
X0001279Y0010435D01*
X0001342Y0010154D01*
X0001412Y0009875D01*
X0001489Y0009598D01*
X0001572Y0009322D01*
X0001662Y0009049D01*
X0001758Y0008778D01*
X0001862Y0008509D01*
X0001971Y0008243D01*
X0002087Y0007980D01*
X0002209Y0007719D01*
X0002338Y0007461D01*
X0002473Y0007207D01*
X0002613Y0006956D01*
X0002760Y0006709D01*
X0002913Y0006465D01*
X0003072Y0006225D01*
X0003236Y0005988D01*
X0003406Y0005756D01*
X0003582Y0005528D01*
X0003763Y0005304D01*
X0003949Y0005085D01*
X0004141Y0004870D01*
X0004338Y0004660D01*
X0004540Y0004455D01*
X0004746Y0004255D01*
X0004958Y0004060D01*
X0005174Y0003870D01*
X0005395Y0003685D01*
X0005620Y0003506D01*
X0005849Y0003332D01*
X0006083Y0003164D01*
X0006320Y0003001D01*
X0006561Y0002844D01*
X0006806Y0002693D01*
X0007055Y0002548D01*
X0007307Y0002409D01*
X0007563Y0002277D01*
X0007821Y0002150D01*
X0008082Y0002030D01*
X0008347Y0001916D01*
X0008614Y0001808D01*
X0008883Y0001707D01*
X0009155Y0001613D01*
X0009429Y0001525D01*
X0009705Y0001444D01*
X0009983Y0001369D01*
X0010263Y0001301D01*
X0010544Y0001240D01*
X0010827Y0001186D01*
X0011111Y0001139D01*
X0011396Y0001098D01*
X0011682Y0001065D01*
X0011968Y0001038D01*
X0012255Y0001018D01*
X0012543Y0001005D01*
X0012831Y0000999D01*
D11*
X0065092Y0004300D02*
X0067561Y0004300D01*
X0067561Y0008003D01*
X0068776Y0008003D02*
X0068776Y0004300D01*
X0068776Y0006151D02*
X0071244Y0006151D01*
X0072459Y0004917D02*
X0072459Y0007386D01*
X0073076Y0008003D01*
X0074310Y0008003D01*
X0074927Y0007386D01*
X0074927Y0004917D01*
X0074310Y0004300D01*
X0073076Y0004300D01*
X0072459Y0004917D01*
X0071244Y0004300D02*
X0071244Y0008003D01*
X0076142Y0008003D02*
X0076142Y0004300D01*
X0078611Y0008003D01*
X0078611Y0004300D01*
X0079825Y0004300D02*
X0081059Y0005534D01*
X0080442Y0005534D02*
X0082294Y0005534D01*
X0082294Y0004300D02*
X0082294Y0008003D01*
X0080442Y0008003D01*
X0079825Y0007386D01*
X0079825Y0006151D01*
X0080442Y0005534D01*
X0083508Y0004300D02*
X0085977Y0004300D01*
X0085977Y0008003D01*
X0083508Y0008003D01*
X0084742Y0006151D02*
X0085977Y0006151D01*
X0087191Y0004917D02*
X0087808Y0004300D01*
X0089043Y0004300D01*
X0089660Y0004917D01*
X0089660Y0007386D01*
X0089043Y0008003D01*
X0087808Y0008003D01*
X0087191Y0007386D01*
X0090874Y0008003D02*
X0093343Y0004300D01*
X0094558Y0004300D02*
X0096409Y0004300D01*
X0097026Y0004917D01*
X0097026Y0006151D01*
X0096409Y0006768D01*
X0094558Y0006768D01*
X0094558Y0003682D01*
X0095175Y0003065D01*
X0095792Y0003065D01*
X0100096Y0004300D02*
X0100096Y0006768D01*
X0100096Y0005534D02*
X0098861Y0006768D01*
X0098244Y0006768D01*
X0101310Y0006151D02*
X0101310Y0004917D01*
X0101927Y0004300D01*
X0103162Y0004300D01*
X0103779Y0004917D01*
X0103779Y0006151D01*
X0103162Y0006768D01*
X0101927Y0006768D01*
X0101310Y0006151D01*
X0105003Y0004917D02*
X0105003Y0004300D01*
X0105620Y0004300D01*
X0105620Y0004917D01*
X0105003Y0004917D01*
X0106838Y0006768D02*
X0107455Y0006768D01*
X0108690Y0005534D01*
X0108690Y0004300D02*
X0108690Y0006768D01*
X0109904Y0006768D02*
X0109904Y0004917D01*
X0110521Y0004300D01*
X0111138Y0004917D01*
X0111756Y0004300D01*
X0112373Y0004917D01*
X0112373Y0006768D01*
X0113587Y0006151D02*
X0113587Y0004300D01*
X0113587Y0006151D02*
X0114204Y0006768D01*
X0115439Y0006768D01*
X0116056Y0006151D01*
X0117270Y0006151D02*
X0117270Y0004917D01*
X0117887Y0004300D01*
X0119122Y0004300D01*
X0119739Y0004917D01*
X0119739Y0006151D01*
X0119122Y0006768D01*
X0117887Y0006768D01*
X0117270Y0006151D01*
X0116056Y0004300D02*
X0116056Y0008003D01*
X0116656Y0010300D02*
X0116656Y0014003D01*
X0115442Y0014003D02*
X0115442Y0010300D01*
X0112973Y0010300D01*
X0116656Y0012151D02*
X0119125Y0012151D01*
X0120340Y0010917D02*
X0120340Y0013386D01*
X0120957Y0014003D01*
X0122191Y0014003D01*
X0122808Y0013386D01*
X0122808Y0010917D01*
X0122191Y0010300D01*
X0120957Y0010300D01*
X0120340Y0010917D01*
X0119125Y0010300D02*
X0119125Y0014003D01*
X0119736Y0016300D02*
X0118501Y0016300D01*
X0119736Y0016300D02*
X0120353Y0016917D01*
X0120353Y0018151D01*
X0119736Y0018768D01*
X0118501Y0018768D01*
X0117884Y0018151D01*
X0117884Y0017534D01*
X0120353Y0017534D01*
X0121567Y0016917D02*
X0122184Y0016300D01*
X0124036Y0016300D01*
X0125250Y0016300D02*
X0125250Y0018151D01*
X0125868Y0018768D01*
X0127719Y0018768D01*
X0127719Y0016300D01*
X0128934Y0017534D02*
X0131402Y0017534D01*
X0131402Y0018151D02*
X0130785Y0018768D01*
X0129551Y0018768D01*
X0128934Y0018151D01*
X0128934Y0017534D01*
X0129551Y0016300D02*
X0130785Y0016300D01*
X0131402Y0016917D01*
X0131402Y0018151D01*
X0132617Y0018768D02*
X0134468Y0018768D01*
X0135085Y0018151D01*
X0135085Y0016917D01*
X0134468Y0016300D01*
X0132617Y0016300D01*
X0132006Y0014003D02*
X0131389Y0013386D01*
X0131389Y0012151D01*
X0132006Y0011534D01*
X0133858Y0011534D01*
X0133858Y0010300D02*
X0133858Y0014003D01*
X0132006Y0014003D01*
X0130175Y0014003D02*
X0127706Y0010300D01*
X0127706Y0014003D01*
X0130175Y0014003D02*
X0130175Y0010300D01*
X0131389Y0010300D02*
X0132623Y0011534D01*
X0135072Y0010300D02*
X0137541Y0010300D01*
X0137541Y0014003D01*
X0135072Y0014003D01*
X0136306Y0012151D02*
X0137541Y0012151D01*
X0138755Y0010917D02*
X0139372Y0010300D01*
X0140607Y0010300D01*
X0141224Y0010917D01*
X0141224Y0013386D01*
X0140607Y0014003D01*
X0139372Y0014003D01*
X0138755Y0013386D01*
X0138755Y0016300D02*
X0141224Y0016300D01*
X0141224Y0020003D01*
X0140607Y0022300D02*
X0139372Y0022300D01*
X0138755Y0022917D01*
X0137541Y0022917D02*
X0136924Y0022300D01*
X0135689Y0022300D01*
X0135072Y0022917D01*
X0135072Y0024151D01*
X0135689Y0024768D01*
X0136924Y0024768D01*
X0137541Y0024151D01*
X0137541Y0022917D01*
X0136924Y0020620D02*
X0136924Y0020003D01*
X0136924Y0018768D02*
X0136924Y0016300D01*
X0137541Y0016300D02*
X0136306Y0016300D01*
X0136924Y0018768D02*
X0137541Y0018768D01*
X0140607Y0022300D02*
X0141224Y0022917D01*
X0141224Y0025386D01*
X0140607Y0026003D01*
X0139372Y0026003D01*
X0138755Y0025386D01*
X0133858Y0024768D02*
X0133858Y0021065D01*
X0133858Y0022300D02*
X0132006Y0022300D01*
X0131389Y0022917D01*
X0131389Y0024151D01*
X0132006Y0024768D01*
X0133858Y0024768D01*
X0130175Y0024768D02*
X0130175Y0022917D01*
X0129557Y0022300D01*
X0127706Y0022300D01*
X0127706Y0021682D02*
X0128323Y0021065D01*
X0128940Y0021065D01*
X0127706Y0021682D02*
X0127706Y0024768D01*
X0126491Y0024768D02*
X0126491Y0022300D01*
X0126491Y0023534D02*
X0125257Y0024768D01*
X0124640Y0024768D01*
X0123422Y0024768D02*
X0122805Y0024768D01*
X0122805Y0022300D01*
X0123422Y0022300D02*
X0122188Y0022300D01*
X0120967Y0022917D02*
X0120350Y0022300D01*
X0118498Y0022300D01*
X0118498Y0021682D02*
X0118498Y0024768D01*
X0120350Y0024768D01*
X0120967Y0024151D01*
X0120967Y0022917D01*
X0119732Y0021065D02*
X0119115Y0021065D01*
X0118498Y0021682D01*
X0117284Y0022300D02*
X0117284Y0026003D01*
X0116666Y0024768D02*
X0115432Y0024768D01*
X0114815Y0024151D01*
X0114815Y0022300D01*
X0112983Y0022917D02*
X0112366Y0022300D01*
X0112983Y0022917D02*
X0112983Y0025386D01*
X0113600Y0024768D02*
X0112366Y0024768D01*
X0111145Y0024768D02*
X0111145Y0024151D01*
X0110528Y0024151D01*
X0110528Y0024768D01*
X0111145Y0024768D01*
X0111145Y0022917D02*
X0111145Y0022300D01*
X0110528Y0022300D01*
X0110528Y0022917D01*
X0111145Y0022917D01*
X0114201Y0020003D02*
X0114201Y0016300D01*
X0116053Y0016300D01*
X0116670Y0016917D01*
X0116670Y0018151D01*
X0116053Y0018768D01*
X0114201Y0018768D01*
X0109303Y0018768D02*
X0109303Y0016917D01*
X0108686Y0016300D01*
X0106835Y0016300D01*
X0106835Y0018768D01*
X0105620Y0018768D02*
X0103769Y0018768D01*
X0103152Y0018151D01*
X0103152Y0016300D01*
X0101937Y0016917D02*
X0101937Y0018151D01*
X0101320Y0018768D01*
X0099468Y0018768D01*
X0099468Y0020003D02*
X0099468Y0016300D01*
X0101320Y0016300D01*
X0101937Y0016917D01*
X0103158Y0014003D02*
X0103158Y0010300D01*
X0101924Y0010300D02*
X0104393Y0010300D01*
X0106841Y0010300D02*
X0105607Y0012768D01*
X0104393Y0012768D02*
X0103158Y0014003D01*
X0105620Y0016300D02*
X0105620Y0018768D01*
X0105003Y0022300D02*
X0103769Y0022300D01*
X0103152Y0022917D01*
X0103152Y0023534D01*
X0103769Y0024151D01*
X0105003Y0024151D01*
X0105620Y0024768D01*
X0105620Y0025386D01*
X0105003Y0026003D01*
X0103769Y0026003D01*
X0103152Y0025386D01*
X0101937Y0024768D02*
X0101937Y0022917D01*
X0101320Y0022300D01*
X0099468Y0022300D01*
X0099468Y0024768D01*
X0098254Y0024768D02*
X0098254Y0022300D01*
X0098254Y0023534D02*
X0097020Y0024768D01*
X0096402Y0024768D01*
X0095185Y0024768D02*
X0095185Y0022300D01*
X0095185Y0023534D02*
X0093950Y0024768D01*
X0093333Y0024768D01*
X0092115Y0024151D02*
X0091498Y0024768D01*
X0090264Y0024768D01*
X0089647Y0024151D01*
X0089647Y0023534D01*
X0092115Y0023534D01*
X0092115Y0022917D02*
X0092115Y0024151D01*
X0092115Y0022917D02*
X0091498Y0022300D01*
X0090264Y0022300D01*
X0088432Y0022917D02*
X0088432Y0024768D01*
X0088432Y0022917D02*
X0087815Y0022300D01*
X0085964Y0022300D01*
X0085964Y0021682D02*
X0086581Y0021065D01*
X0087198Y0021065D01*
X0085964Y0021682D02*
X0085964Y0024768D01*
X0084749Y0024151D02*
X0083515Y0024151D01*
X0084749Y0022300D02*
X0082280Y0022300D01*
X0081066Y0022300D02*
X0081066Y0024768D01*
X0079832Y0026003D01*
X0078597Y0024768D01*
X0078597Y0022300D01*
X0077383Y0022300D02*
X0077383Y0026003D01*
X0075531Y0026003D01*
X0074914Y0025386D01*
X0074914Y0024151D01*
X0075531Y0023534D01*
X0077383Y0023534D01*
X0076148Y0023534D02*
X0074914Y0022300D01*
X0073700Y0022917D02*
X0073083Y0022300D01*
X0071848Y0022300D01*
X0071231Y0022917D01*
X0071231Y0023534D01*
X0071848Y0024151D01*
X0073083Y0024151D01*
X0073700Y0024768D01*
X0073700Y0025386D01*
X0073083Y0026003D01*
X0071848Y0026003D01*
X0071231Y0025386D01*
X0078597Y0024151D02*
X0081066Y0024151D01*
X0082280Y0026003D02*
X0084749Y0026003D01*
X0084749Y0022300D01*
X0092719Y0018768D02*
X0093336Y0018768D01*
X0094571Y0017534D01*
X0095785Y0017534D02*
X0098254Y0017534D01*
X0098254Y0018151D02*
X0097637Y0018768D01*
X0096402Y0018768D01*
X0095785Y0018151D01*
X0095785Y0017534D01*
X0096402Y0016300D02*
X0097637Y0016300D01*
X0098254Y0016917D01*
X0098254Y0018151D01*
X0094571Y0018768D02*
X0094571Y0016300D01*
X0097633Y0014003D02*
X0097633Y0010300D01*
X0096399Y0010300D02*
X0098868Y0010300D01*
X0100092Y0010300D02*
X0100709Y0010300D01*
X0100709Y0010917D01*
X0100092Y0010917D01*
X0100092Y0010300D01*
X0098868Y0012768D02*
X0097633Y0014003D01*
X0106841Y0010300D02*
X0108076Y0012768D01*
X0105003Y0022300D02*
X0105620Y0022917D01*
X0116666Y0024768D02*
X0117284Y0024151D01*
X0122805Y0026003D02*
X0122805Y0026620D01*
X0123419Y0018768D02*
X0121567Y0018768D01*
X0122184Y0017534D02*
X0123419Y0017534D01*
X0124036Y0018151D01*
X0123419Y0018768D01*
X0122184Y0017534D02*
X0121567Y0016917D01*
X0120953Y0008003D02*
X0123422Y0004300D01*
X0127105Y0004300D02*
X0124637Y0008003D01*
X0128330Y0006768D02*
X0128330Y0006151D01*
X0128947Y0006151D01*
X0128947Y0006768D01*
X0128330Y0006768D01*
X0130161Y0006151D02*
X0130161Y0004917D01*
X0130778Y0004300D01*
X0132630Y0004300D01*
X0133851Y0004300D02*
X0134468Y0004917D01*
X0134468Y0007386D01*
X0135085Y0006768D02*
X0133851Y0006768D01*
X0132630Y0006768D02*
X0130778Y0006768D01*
X0130161Y0006151D01*
X0128947Y0004917D02*
X0128330Y0004917D01*
X0128330Y0004300D01*
X0128947Y0004300D01*
X0128947Y0004917D01*
X0132630Y0006768D02*
X0132630Y0003065D01*
X0136306Y0004300D02*
X0136924Y0004917D01*
X0136924Y0007386D01*
X0137541Y0006768D02*
X0136306Y0006768D01*
X0138755Y0006151D02*
X0138755Y0004300D01*
X0138755Y0006151D02*
X0139372Y0006768D01*
X0140607Y0006768D01*
X0141224Y0006151D01*
X0141224Y0004300D02*
X0141224Y0008003D01*
M02*
